<?xml version="1.0" standalone="no"?>
<!DOCTYPE svg PUBLIC "-//W3C//DTD SVG 20010904//EN"
 "http://www.w3.org/TR/2001/REC-SVG-20010904/DTD/svg10.dtd">
<svg version="1.0" xmlns="http://www.w3.org/2000/svg"
 width="477.000000pt" height="477.000000pt" viewBox="0 0 477.000000 477.000000"
 preserveAspectRatio="xMidYMid meet">

<g transform="translate(0.000000,477.000000) scale(0.100000,-0.100000)"
fill="#000000" stroke="none">
<path d="M0 2385 l0 -2385 2385 0 2385 0 0 2385 0 2385 -2385 0 -2385 0 0
-2385z m4760 5 l0 -2370 -2375 0 -2375 0 0 2370 0 2370 2375 0 2375 0 0 -2370z"/>
<path d="M2110 4710 c-484 -67 -892 -249 -1248 -555 -393 -338 -648 -775 -764
-1310 -29 -131 -31 -157 -35 -401 -5 -286 4 -393 53 -589 100 -401 255 -702
520 -1006 337 -386 786 -644 1304 -749 273 -55 633 -53 913 6 711 150 1298
602 1617 1244 190 382 266 761 240 1205 -26 461 -211 932 -513 1304 -83 103
-264 282 -366 361 -249 195 -524 335 -821 416 -229 63 -319 75 -590 79 -135 2
-274 0 -310 -5z m622 -1355 c3 -3 -8 -49 -23 -103 -263 -899 -469 -1596 -473
-1599 -9 -10 -135 -15 -180 -9 -25 4 -46 13 -46 19 0 18 471 1618 492 1670
l10 27 108 0 c58 0 109 -2 112 -5z m-904 -496 c-2 -54 -8 -103 -13 -108 -6 -6
-167 -79 -360 -164 -463 -204 -475 -209 -475 -218 0 -6 184 -89 735 -331 l100
-44 8 -60 c8 -61 5 -169 -5 -179 -5 -6 -299 128 -833 377 -99 47 -204 95 -232
108 l-53 24 0 105 0 106 313 145 c813 376 801 371 810 354 5 -9 7 -61 5 -115z
m1599 -113 c279 -128 525 -242 546 -252 l37 -18 0 -108 0 -109 -57 -25 c-32
-14 -116 -53 -188 -86 -139 -65 -842 -386 -862 -395 -10 -4 -13 23 -13 118 l1
124 197 84 c516 218 662 285 649 297 -12 11 -229 107 -624 275 l-223 94 0 118
c0 95 3 117 14 117 8 0 243 -105 523 -234z"/>
</g>
</svg>
